<?xml version="1.0" encoding="utf-8"?>
<!-- Generator: Adobe Illustrator 24.3.0, SVG Export Plug-In . SVG Version: 6.00 Build 0)  -->
<svg version="1.1" xmlns="http://www.w3.org/2000/svg" xmlns:xlink="http://www.w3.org/1999/xlink" x="0px" y="0px"
	 viewBox="0 0 200 200" style="enable-background:new 0 0 200 200;" xml:space="preserve">
<style type="text/css">
	.st0{display:none;}
	.st1{display:inline;}
	.st2{fill:none;stroke:#231F20;stroke-width:0.1;stroke-miterlimit:10;}
	.st3{display:inline;stroke:#000000;stroke-width:5;stroke-linecap:round;stroke-linejoin:round;stroke-miterlimit:10;}
	.st4{display:inline;fill:none;stroke:#000000;stroke-width:5;stroke-miterlimit:10;}
	.st5{display:inline;fill:none;stroke:#000000;stroke-width:5;stroke-linecap:round;stroke-linejoin:round;stroke-miterlimit:10;}
	.st6{fill:#9E9E9E;}
	.st7{fill:#231F20;}
	.st8{fill:none;stroke:#000000;stroke-width:3;stroke-linecap:round;stroke-linejoin:round;stroke-miterlimit:10;}
	.st9{fill:none;stroke:#000000;stroke-width:5;stroke-linecap:round;stroke-linejoin:round;stroke-miterlimit:10;}
	.st10{fill:#FFFFFF;}
	.st11{fill:none;stroke:#000000;stroke-width:4;stroke-linecap:round;stroke-linejoin:round;stroke-miterlimit:10;}
	.st12{fill:#231F20;stroke:#231F20;stroke-miterlimit:10;}
	.st13{fill:none;stroke:#000000;stroke-width:15;stroke-miterlimit:10;}
	.st14{fill:none;stroke:#231F20;stroke-width:15;stroke-miterlimit:10;}
</style>
<g id="Layer_1" class="st0">
	<g class="st1">
		<rect x="0.3" y="-0.4" class="st2" width="200" height="200"/>
		<rect x="29.6" y="29" class="st2" width="141.2" height="141.2"/>
		<circle class="st2" cx="100.3" cy="99.6" r="100"/>
		<circle class="st2" cx="100.3" cy="99.6" r="70.6"/>
		<circle class="st2" cx="100.3" cy="99.6" r="50"/>
		<rect x="50.3" y="-0.4" class="st2" width="100" height="200"/>
		<line class="st2" x1="100.3" y1="-0.4" x2="100.3" y2="199.6"/>
		<rect x="0.3" y="49.6" class="st2" width="200" height="100"/>
		<line class="st2" x1="0.3" y1="99.6" x2="200.3" y2="99.6"/>
		<line class="st2" x1="0.3" y1="-0.4" x2="200.3" y2="199.6"/>
		<line class="st2" x1="200.3" y1="-0.4" x2="0.3" y2="199.6"/>
		<circle class="st2" cx="100.7" cy="99.2" r="25"/>
	</g>
</g>
<g id="Layer_2">
	<g>
		<path class="st6" d="M85.9,50.2c19.3,0,35,15.7,35,35s-15.7,35-35,35s-35-15.7-35-35S66.6,50.2,85.9,50.2 M85.9,35.2
			c-27.6,0-50,22.4-50,50c0,27.6,22.4,50,50,50c27.6,0,50-22.4,50-50C135.9,57.6,113.5,35.2,85.9,35.2L85.9,35.2z"/>
	</g>
	<g>
		<g>
			<path class="st6" d="M140.4,150.2l-24.9-25l10.6-10.6l24.9,25c2.5,2.5,2.5,6.6,0,9.1l-1.5,1.5C147,152.7,142.9,152.7,140.4,150.2
				z"/>
		</g>
	</g>
	<g>
		<path class="st6" d="M109.3,74.7c-0.9,0-1.7-0.4-2.2-1.2C99.7,61,83.5,56.9,71.1,64.3c-1.2,0.7-2.7,0.3-3.4-0.9
			c-0.7-1.2-0.3-2.7,0.9-3.4c14.8-8.8,34.1-3.9,42.9,10.9c0.7,1.2,0.3,2.7-0.9,3.4C110.2,74.6,109.7,74.7,109.3,74.7z"/>
	</g>
</g>
</svg>
