<?xml version="1.0" encoding="UTF-8"?>
<!DOCTYPE svg PUBLIC "-//W3C//DTD SVG 1.1//EN" "http://www.w3.org/Graphics/SVG/1.1/DTD/svg11.dtd">
<!-- Creator: CorelDRAW 2021 (64-Bit) -->
<svg xmlns="http://www.w3.org/2000/svg" xml:space="preserve" width="50.7998mm" height="35.5598mm" version="1.1" style="shape-rendering:geometricPrecision; text-rendering:geometricPrecision; image-rendering:optimizeQuality; fill-rule:evenodd; clip-rule:evenodd"
viewBox="0 0 5079.98 3555.98"
 xmlns:xlink="http://www.w3.org/1999/xlink"
 xmlns:xodm="http://www.corel.com/coreldraw/odm/2003">
 <defs>
  <style type="text/css">
   <![CDATA[
    .fil1 {fill:#E62129}
    .fil0 {fill:#1D1819}
   ]]>
  </style>
 </defs>
 <g id="Layer_x0020_1">
  <metadata id="CorelCorpID_0Corel-Layer"/>
  <g id="_2570490129920">
   <path class="fil0" d="M84.65 1088.31l877.13 0 -248.63 1378.47 -601.44 0 190.75 -1057.54 -217.81 -320.93zm1174.12 582.09l557.12 797.26 -739.28 -0.88 -240.2 -343.72 121.1 -671.44 495.82 -363.31 222.85 0 378.6 0 247.79 0 8.66 13.5 -0.25 1.29 515.25 814.54 -99.05 549.14 -75.66 0 -525.78 0 101.34 -549.84 -427.06 -642.35 -541.25 395.81zm2471.05 -582.09l601.44 0 0 0.05 664.07 -0.05 -342.72 456.94 -403.77 0.01 -166.22 921.52 -601.43 0 166.2 -921.47 -518.69 0.04 430.95 -456.94 170.15 -0.01 0.02 -0.09z"/>
   <polygon class="fil1" points="3002.78,1088.31 3559.74,1088.31 2871.07,1818.51 "/>
  </g>
 </g>
</svg>
