<?xml version="1.0" encoding="UTF-8"?>
<svg width="283px" height="282px" viewBox="0 0 283 282" version="1.1" xmlns="http://www.w3.org/2000/svg" xmlns:xlink="http://www.w3.org/1999/xlink">
    <!-- Generator: Sketch 53.2 (72643) - https://sketchapp.com -->
    <title>AGV-logo08_Color</title>
    <desc>Created with Sketch.</desc>
    <g id="AGV-logo08_Color" stroke="none" stroke-width="1" fill="none" fill-rule="evenodd">
        <path d="M237.821,38.879 C211.659,14.262 177.46,0.705 141.523,0.705 C105.587,0.705 71.388,14.262 45.226,38.879 C19.186,63.381 3.574,96.474 1.267,132.06 C1.062,135.21 0.96,138.31 0.96,141.27 C0.96,148.387 1.499,155.549 2.563,162.555 C2.669,163.252 2.771,163.942 2.868,164.619 L2.955,165.205 C3.351,167.931 3.761,170.75 4.384,173.923 L21.549,259.897 C22.754,265.941 26.116,271.484 31.015,275.503 C35.914,279.521 42.006,281.732 48.169,281.732 L234.874,281.732 C241.036,281.732 247.129,279.521 252.027,275.504 C256.926,271.486 260.288,265.943 261.497,259.9 L278.668,173.874 C279.289,170.726 279.701,167.887 280.1,165.143 C280.224,164.284 280.35,163.416 280.48,162.555 C281.545,155.557 282.085,148.396 282.085,141.27 C282.085,138.295 281.983,135.196 281.779,132.061 C279.47,96.476 263.857,63.382 237.821,38.879" id="Fill-1" fill="#FFFFFE"></path>
        <path d="M101.674,36.938 C88.018,42.082 75.39,49.901 64.513,60.137 C43.791,79.633 31.37,105.957 29.535,134.256 C29.371,136.785 29.288,139.259 29.288,141.602 C29.288,147.276 29.719,152.984 30.566,158.567 C30.713,159.533 30.851,160.484 30.989,161.432 C31.298,163.554 31.597,165.575 31.963,167.585 L101.674,167.585 L101.674,36.938" id="Fill-2" fill="#009C49"></path>
        <path d="M250.327,167.585 C250.674,165.396 250.957,163.457 251.251,161.432 C251.39,160.484 251.527,159.533 251.674,158.568 C252.522,152.992 252.95,147.283 252.95,141.602 C252.95,139.242 252.868,136.771 252.705,134.254 C250.87,105.957 238.446,79.633 217.728,60.137 C206.918,49.965 194.38,42.176 180.82,37.031 L180.82,167.585 L250.327,167.585" id="Fill-3" fill="#D8232A"></path>
        <path d="M178.396,36.14 C166.554,31.958 153.978,29.771 141.12,30.251 C128.262,29.771 115.686,31.958 103.843,36.14 C103.116,36.396 102.395,36.666 101.674,36.938 L101.674,167.585 L180.82,167.585 L180.82,37.031 C180.016,36.726 179.208,36.427 178.396,36.14" id="Fill-4" fill="#FFFFFE"></path>
        <path d="M277.587,132.665 C275.349,98.146 260.202,66.043 234.942,42.271 C209.563,18.391 176.386,5.238 141.523,5.238 C106.658,5.238 73.482,18.391 48.104,42.271 C22.843,66.043 7.696,98.146 5.458,132.662 C5.261,135.707 5.16,138.715 5.16,141.604 C5.16,148.51 5.684,155.459 6.717,162.256 C6.856,163.17 6.986,164.07 7.116,164.964 C7.508,167.658 7.914,170.443 8.511,173.48 L25.827,260.22 C27.834,270.279 37.082,277.864 47.339,277.864 L113.831,277.864 L113.831,264.236 L47.34,264.236 C43.592,264.236 39.926,261.23 39.192,257.555 L21.877,170.811 C21.164,167.193 20.735,163.795 20.19,160.207 C19.269,154.14 18.788,147.927 18.788,141.604 C18.788,138.896 18.885,136.212 19.058,133.547 C23.211,69.519 76.445,18.866 141.523,18.866 C206.601,18.866 259.835,69.519 263.987,133.547 C264.159,136.212 264.258,138.896 264.258,141.604 C264.258,147.927 263.778,154.14 262.855,160.207 C262.311,163.795 261.881,167.193 261.169,170.811 L243.854,257.555 C243.12,261.23 239.454,264.236 235.706,264.236 L180.82,264.236 L180.82,277.864 L235.706,277.864 C245.96,277.864 255.208,270.281 257.219,260.223 L274.54,173.444 C275.136,170.426 275.543,167.621 275.937,164.911 C276.063,164.032 276.193,163.146 276.327,162.258 C277.361,155.47 277.885,148.52 277.885,141.604 C277.885,138.726 277.784,135.72 277.587,132.665" id="Fill-5" fill="#070808"></path>
        <path d="M133.788,239.534 L148.376,239.534 L148.376,193.59 L133.788,193.59 L133.788,239.534 Z M113.831,189.264 L113.831,243.858 C113.844,249.379 118.334,253.857 123.9,253.871 L148.117,253.871 L148.117,264.236 L125.989,264.234 L125.989,277.862 L158.259,277.862 C163.829,277.855 168.321,273.37 168.331,267.855 L168.331,189.267 C168.321,183.738 163.829,179.263 158.259,179.25 L123.905,179.25 C118.334,179.263 113.844,183.738 113.831,189.264 L113.831,189.264 Z" id="Fill-6" fill="#070808"></path>
        <path d="M67.194,239.534 L81.782,239.534 L81.782,219.158 L67.194,219.158 L67.194,239.534 Z M91.609,179.25 L57.144,179.25 L57.144,193.59 L81.82,193.59 L81.82,204.82 L57.332,204.816 C51.853,204.824 47.393,209.163 47.239,214.83 L47.243,243.873 C47.296,249.332 51.633,253.749 57.301,253.871 L91.581,253.88 C97.136,253.873 101.637,249.432 101.674,243.651 L101.674,189.262 C101.666,183.74 97.172,179.255 91.609,179.25 L91.609,179.25 Z" id="Fill-7" fill="#070808"></path>
        <path d="M230.116,243.871 L243.614,179.25 L224.131,179.25 L211.626,239.534 L200.774,239.534 L200.774,179.25 L180.82,179.25 L180.82,253.96 L220.16,253.96 C225.64,253.953 228.981,249.574 230.116,243.871" id="Fill-8" fill="#070808"></path>
    </g>
</svg>